/* XPM */
static char *_6e1ac1e10894264b69d08371e03db14XJhYbRbgUw7ZmGVX[] = {
/* columns rows colors chars-per-pixel */
"64 64 256 2 ",
"   c #150D0B",
".  c #1A0D0D",
"X  c #180805",
"o  c #1B120E",
"O  c #18130A",
"+  c #1B0D15",
"@  c #160C17",
"#  c #1D1412",
"$  c #1C1915",
"%  c #1D131B",
"&  c #181519",
"*  c #0C0911",
"=  c #250904",
"-  c #271609",
";  c #371808",
":  c #221514",
">  c #231A15",
",  c #22151B",
"<  c #251B1A",
"1  c #2A1E1C",
"2  c #2B1816",
"3  c #341A17",
"4  c #2A0C0D",
"5  c #2B221D",
"6  c #28221A",
"7  c #38281A",
"8  c #3D311C",
"9  c #382308",
"0  c #1C1325",
"q  c #160E24",
"w  c #221623",
"e  c #251A24",
"r  c #2A1C25",
"t  c #271A2A",
"y  c #341E26",
"u  c #321D30",
"i  c #2D2422",
"p  c #2C2629",
"a  c #332423",
"s  c #332B24",
"d  c #33242C",
"f  c #342C29",
"g  c #3B2B2C",
"h  c #3A2826",
"j  c #34332D",
"k  c #3B332D",
"l  c #3B3527",
"z  c #2A2732",
"x  c #332532",
"c  c #3C2C34",
"v  c #382B37",
"b  c #353532",
"n  c #3C3431",
"m  c #3C3A35",
"M  c #393639",
"N  c #2B3430",
"B  c #1A2014",
"V  c #471B08",
"C  c #491C0F",
"Z  c #6B1A04",
"A  c #58230C",
"S  c #4A2718",
"D  c #562818",
"F  c #46341C",
"G  c #59361B",
"H  c #4C210D",
"J  c #762A08",
"K  c #79391A",
"L  c #672F13",
"P  c #432D2D",
"I  c #482A24",
"U  c #46362A",
"Y  c #583628",
"T  c #432E33",
"R  c #462F37",
"E  c #443334",
"W  c #4B3335",
"Q  c #433B35",
"!  c #43333B",
"~  c #4B353A",
"^  c #443C3B",
"/  c #4B3C3C",
"(  c #4B3D34",
")  c #553B39",
"_  c #562D25",
"`  c #673825",
"'  c #743B27",
"]  c #673D33",
"[  c #713629",
"{  c #3D413B",
"}  c #4C413C",
"|  c #464339",
" . c #57483A",
".. c #51442E",
"X. c #694529",
"o. c #7A4529",
"O. c #684838",
"+. c #754937",
"@. c #6E523A",
"#. c #72451E",
"$. c #393842",
"%. c #473B43",
"&. c #533E44",
"*. c #3B454D",
"=. c #4C4442",
"-. c #4A4848",
";. c #534444",
":. c #534B45",
">. c #5A4B4C",
",. c #574749",
"<. c #58534B",
"1. c #4A4C54",
"2. c #564D53",
"3. c #585759",
"4. c #4A5254",
"5. c #655547",
"6. c #645A57",
"7. c #785746",
"8. c #67635C",
"9. c #74655D",
"0. c #555C66",
"q. c #4D5967",
"w. c #675C65",
"e. c #5A6469",
"r. c #5A6673",
"t. c #696668",
"y. c #746B66",
"u. c #646B75",
"i. c #697379",
"p. c #797876",
"a. c #7A716A",
"s. c #5F615C",
"d. c #8A3915",
"f. c #8B3C25",
"g. c #95451C",
"h. c #874B29",
"j. c #974925",
"k. c #89553A",
"l. c #99583A",
"z. c #8F4C32",
"x. c #A85A39",
"c. c #AF5430",
"v. c #B7683A",
"b. c #A8643B",
"n. c #C9693A",
"m. c #D36B3E",
"M. c #CB5E35",
"N. c #8A5947",
"B. c #985E45",
"V. c #855D57",
"C. c #976349",
"Z. c #916955",
"A. c #A86849",
"S. c #B76947",
"D. c #BB744C",
"F. c #A86B54",
"G. c #A87457",
"H. c #B77859",
"J. c #B16E54",
"K. c #8B7670",
"L. c #AE7A67",
"P. c #AF5D43",
"I. c #C66B45",
"U. c #D66D45",
"Y. c #C8754A",
"T. c #D77648",
"R. c #C77856",
"E. c #D87B54",
"W. c #C16E50",
"Q. c #E57A4A",
"!. c #E37D55",
"~. c #FA7D51",
"^. c #D37C60",
"/. c #7E8274",
"(. c #8B837A",
"). c #B6846D",
"_. c #BF8057",
"`. c #CB8358",
"'. c #D98558",
"]. c #DF8A53",
"[. c #E9844B",
"{. c #E78859",
"}. c #F48758",
"|. c #E99359",
" X c #F5985A",
".X c #F48A49",
"XX c #CA8767",
"oX c #D78A67",
"OX c #D9936A",
"+X c #CB8E73",
"@X c #CB9474",
"#X c #D89674",
"$X c #D49073",
"%X c #E78A64",
"&X c #E99667",
"*X c #F89866",
"=X c #E79974",
"-X c #F69974",
";X c #F48D65",
":X c #F9A575",
">X c #F3A272",
",X c #6E7B85",
"<X c #837F81",
"1X c #76848C",
"2X c #7A8997",
"3X c #7A90A3",
"4X c #888785",
"5X c #989898",
"6X c #8C8F91",
"7X c #B3938C",
"8X c #8A99A6",
"9X c #8F9BAA",
"0X c #96A8B4",
"qX c #AAA7A6",
"wX c #B6ABA9",
"eX c #A6B3B8",
"rX c #B8B7B9",
"tX c #ADAFAE",
"yX c #9EA89D",
"uX c #EDA884",
"iX c #C4B9B6",
"pX c #C1B1AC",
"aX c #D5A18C",
"sX c #C7C2B9",
"dX c #B8BBC6",
"fX c #A7B8C4",
"gX c #94B2C8",
"hX c #B9C4CC",
"jX c #B7CAD9",
"kX c #BCD2DD",
"lX c #A9C6D9",
"zX c #B8D8EA",
"xX c #B8DAF3",
"cX c #AED1EB",
"vX c #BBE4EC",
"bX c #B6E2ED",
"nX c #B9E4F4",
"mX c #C4C5C7",
"MX c #C2CCD5",
"NX c #C8D6DA",
"BX c #D6D9D4",
"VX c #D3E1DC",
"CX c #C5DBE6",
"ZX c #C2DDF4",
"AX c #D2D9E1",
"SX c #C3E3ED",
"DX c #C5EAED",
"FX c #CAE9ED",
"GX c #D7E9E7",
"HX c #C6E9F4",
"JX c #D4ECF2",
"KX c #CDF1F6",
"LX c #D7F3F6",
"PX c #DDF2EE",
"IX c #E7F2ED",
"UX c #BAC0C1",
/* pixels */
"p.p.yXhXAXeX9X6X,X8XfXjXCXZXxXnXnXnXnXnXnXbXvXvXbXbXbXvXSXzXMXjXMXdXdXdXjXMXZXcXbXcXcXcXcXcXcXlX3X3X3Xr.q.,X,X,X2X,X3X3X3XgXcXcX",
"s.t.6XeXBXhX6X,Xi.2XfXFXHXHXnXnXnXnXnXnXbXbXvXvXnXvXvXvXCXjXdXjXMXdXdXdXdXjXZXxXcXxXnXcXxXcXcXgX3X9X,Xq.q.r.r.,X,Xq.,X3X9XgXcXgX",
"<.8.8.6XNXNX5X6X1X1XqXkXZXZXHXHXnXnXvXvXvXvXvXvXvXvXvXDXCXjXdXhXMXdXiXwXdXMXCXcXcXnXxXxXxXcXcXgX0X3Xq.,X3.0.,X9X,Xq.,X,XgXdXxXcX",
"{ <.<.tXVXhXyXi.0.u.8XhXCXHXKXnXnXDXDXvXvXvXDXvXvXvXvXHXCXjXdXmXmXiXiXwXwXmXNXCXnXxXxXxXxXxXcXcXcX3Xq.q.q.u.,X4Xr.,Xq.,X0XlXcXcX",
"....8.sXyX5X6X-.-.i.9XhXGXJXHXZXDXDXDXDXDXDXDXvXHXHXSXFXCXhXrXdXsXpXpXpXiXmXMXCXSXxXxXZXxXxXxXzXZX8Xu.1.0.0.1.0.r.q.$.*.2XlXlXzX",
"8 { ..s.s.8.| s -.4XtXhXMXkXHXJXDXDXDXDXDXDXDXKXDXHXSXSXNXhXrXrXsXpXaXpXiXdXNXCXvXZXHXZXcXSXzXzXCX,X0.1.q.4.e.&.r.*.z z *.3XjXlX",
"F  ...8 8.s.{ { b 2.4XeXeXeXJXJXDXDXDXGXDXDXDXvXDXnXDXCXCXMXrXrXmXpXwXwXrXiXNXCXSXHXZXZXkXZXzXzXMX,Xq.3.1.2.<X2.t.1.$.$.N 1XfXeX",
"F F ......l l { b 6 M y.u.2XCXJXPXDXDXDXKXDXKXvXHXKXSXCXNXMXUXwXmXpXwXqXqXmXNXSXHXZXZXZXcXZXcXCXMX8X0.q.3.3.w.v w.1.N z N 1XeXgX",
"9 8 8 8 7 s s j 6 j 6 b e.i.kXPXLXFXKXGXDXKXKXvXKXHXSXCXAXdXqXqXwXwX6X<XwXdXCXCXzXvXzXHXzXZXZXjX8X,Xu.r.1.1.2.v w.2.%.$.z ,X0XeX",
"8 F l 8 7 s s 7 5 5 6 b { 4.eXGXGXDXFXKXDXKXKXKXHXLXCXCXhX<X&.a.y.6.&.>.p.qXMXJXkXSXjXjXjXfXjX9X,X0.u.0.%.%.%.&.3.w.$.-.z $.2X0X",
"F F 8 8 6 s 5 6 5 > 6 s s -.p.eXLXKXGXKXLXKXKXKXKXHXFXMXt.2./ P y I h 3 P 6.i.8XjX8X9X9X0X,Xi.1Xq.$.q.%.1.%.v 3.t.2.%.$.b M r.8X",
"8 8 8 6 6 6 6 6 6 6 6 7 { 3.3.eXPXPXKXKXLXKXLXKXKXkXkX6X< 1 7 - ; ; = 3 9 6 6 4.i.r.,X,Xi.i.4.e.q.$.$.x 2.0.M t.w.%.2.v M *.t.yX",
"- - > $ $ $ $ > > 6 5 5 { :.4.tXVXLXGXLXLXLXLXLXLXeXeXt.1 3 3 S _ B.N.L C ; 7 8 N 4.t.u.1.1.1.e.%.$.$.t 3.t.2.(.5X-.j *.1.-.4XyX",
"O - - $ $ $ $ B 5 O 6 7 6 s { p.UXVXGXPXIXIXLXLXLXCXAX| - I +.G.H.XX+XXXF.C V 8 8 m 3.3.3.:.{ 1.$.$.M x t.p.i.4XBX:.f | t.3.K.4X",
": : $ $ $ & $ 6 6 O O - 6 B m s.tXVXPXPXIXLXLXLXIXGX5XX Y Z.Z.F.R.Y.E.=X=XH.+.; - 7 3.>.6.t.m N b z z 2.6X4X4X<XqX| <.m | <.<.K.",
"1 < $ # & $ $ $ O 6 O O 6   m y.qXGXPXPXIXIXIXPXNXi.=.7 V.Z.).J.W.E.|.&X%XuXH.` 9 9 7 | :.m j | b b M p.tX5XyXK.-.| :.5 k 6.8.t.",
"< 1 1 $ $ # # $ > o - - $ o U 4XsXBXBXIXIXIXVXVXe.{ s...O.G.R.P.x.n.&X&X-X=X$XP.A 9 ..| k m M { f M -.0.6X3.K.-.b =.n E Q / 6.<.",
"6 1 1 $ # $ $ o $ - $ o > 7 :.6XIXIXBXIXIXBXIXtXN b m U S L J.Y.g.v.b.v.R.;X;XW.K S 8 m } b m =.M M -.6.yXK.p.=.^ | f s n / ,.a ",
"6 < $ # O o - $ o > $ - i Q :.y.qXBXwXsXIXmXyX<.N s ..9.7.A oXuXc.d.c.&XE.{.-XS.o...F l 6.=.M 1.4.p 1.(.5XiX5X<.y.^ i n E s 1 a ",
"< < : # # > $ O $ o o : j ( Q Q } 4XwXBXBX/.{ | { j 5 ..; l.OX-Xn.Z J v.%XE.%XR.l.G F ..:.p.| 3.4.-.{ 2.p.tXa.f -.f f f s a 2 1 ",
"> $ : > 1 < < # : O o > 5 j i s 8 a.sXyX(.<.<.| m 6 7 H ] ^.-XuXE.j.d.g.I.!.;X%XA.` G ....(.8.t.8.<.:.t.p.:.n =.=.f a 1 # 1 > 1 ",
"# # < < 6 5 $ o O : a s 5 5 < i B 8 9.(.5.l <.{ O |  .S L.uX%X-X;XE.'.{.n.{.*X%Xb.o.G 8 ..6.K.p.| | -.(.<.p s 6.6.f i < i r - : ",
"  $ # $ > > # $ . : s s 5 5 > > B | <.y.{ ....<.s  .a C C x.f.!.!.T.E.{.*X X{.*Xb.h.G 8 ..{ 9./.^ y.=.=.m 3.k f 1 i i i a Q k 2 ",
"  . o   # # $ . # o < $ > a 5 1 6 {  .{ 8 { { ..k 5.K.C L P.I.U.E.c.].*X:X*X-X&Xv.j.` F 8 8 ..(.y.=.:.m m s k > 1 < i i i f ;.6.",
"      O $ O   # $ : < > < < > < 6 5 5 l s 5 5 s h 9.Z.O.P.P.^.uX-Xc.m.:X X X X XY.S._.7.8 8 l (.(.y.k l ^ 7 k r < < < < g 1 f 4X",
"o             O . # : $ # : : : O 6 5 5 a 3 5 5 W 6._ _ B.^.^.!.-XT.m.:X X X X X'.`.@XZ.8 ....a.a.K.:.l 6 < a # 1 r 2 : i 1 W (.",
"i < $   O         # # # # : > # # w a a 5 1 5 1 x w.S _ [ j.P.~.{.{.n. X X X X X|.|.@XC.9 ..8 l  .a.5.} 5 : < 1 # < < < 1 5 f 6.",
"f s > o     X     . : : > , < < % i f i 5 1 1 2 g V._ ] Z f.f.c.U.T.M. X X.X X X|.OXOX@.8 l 8 6 ..9.5. .f > : 2 > # : < 1 6 2 6 ",
"s i $           X . # : < , < % % 6 6 < > < > > g K.&.] z.R.^.c.n.n.m. X X X X X{.&X$XX.8 - 6 2 8  . .l s 1 5 : 2 : . + $ 1 5 > ",
"s 5 #               . # # , < , & $ > > > > 2 > P 9.] ] N.S.^.U.T.v.[. X X X X X{.&XH._ 8 B > > 6 7 8 8 l 2 5 - # # o : o < l 5 ",
"i 5 $ o o $       . + .   # # # # & $ < 5 6 2 < 2 W ] N.J.W.E.!.E.Y.].|. X|. X XT.x.K V 8 6 1 o 7 - 7 | U : : < + . o < : : s s ",
"B 6 $ # : - = X : : #     # # % # O   < 1 2 > > , W O.N.H.W.E.!.Y.T.]..X X].|.].{.j.H ( l p < - X - U ( 2 1 3 s i < . : # o s 5 ",
"B $ % : ,.L.C Y K.=.: . O O O & + : t t t z 0 q < a  .N.G.R.'.}.}.[.[.[..X.X.XQ.'.L W &.v M W ) 3 3 5 s : 5 h | n :   $   O i i ",
"  $ $ , >.7X[ [ 7XL.- X X $ & & $ , w t t 0 0 t % 5 ) 7.l.J.I.E.E.{.T.Q..X[.Q.|.j.D ~ ! x v W W P E P U : $ 5 } i o * O   < f s ",
"O - 4 2 ] L.f.A F.L.Y I 9 =     1 p t t q q q 0 @ < 8 O.o.A.x.Y.n.T.E.T.T.|.|.`.L _ &.g t %.! T T ) } / a # # f $ o $ O   p b s ",
"Y ..; 4 ] F.B.K [ ] N.L.V.F 6 i f n x t z u 0 @ & . - G X.z.z.v.v.v.Y.R.OX=XH.' ` ] W r x &.! y P / /  .} g < > j f N s j m | m ",
").).O.; ' A.S.j.f.Z [ F.).O.l N j ^ v p u v u w e # - = A ' f.J g.j.b.`.XXC.` D ] ) I 2 ! %.x t / &./ / >.;.n f j j s j j j b j ",
"k.L.N.L f.J.R.x.P.z.Z f.J.N.9 6 m ^ v p %.%.x z $ 1 7 = _ V.G.B.J g.b.l.o.L ` 5.W W 3 3 / ! 0 u &.) ) / >.>.=.m m { b { m b j m ",
"o.J.H.B.f.I.U.W.^.^.c.z.D.C.- 1 %.$.x x %.$.d v p g n = C +.Z.B.h.h.g.K L A Y W E W 3 S ) P w x %./ &./ ;.,.,.^ m j j j m j N N ",
"h.C.+XR.f.M.!.^.^.^.^.^.XXF.= g M x p v ,.v r %.e p f 1 3 _ N.J._.OX&XOX`.k._ W E ~ y y ~ y w x ;./ &.T / :.<.^ m m { j b m N j ",
"` N.^.oXE.!.;XE.f.J j.E.XXG.4 y M z z %.%.x x %.0 z ! g I V.7X+XXXOX&XOX&X>XZ...m n a h ) 3 , u &.,.g y >.>.=.,.( Q m m b b b N ",
"] ' A.oX%X}.~.j.J J g.I.oXL.C 4 t 0 t u x u $.%.t u v y P _ ] B.@X'.].|.].&X@X).7.U 3 P ) y + g &.~ a g 6.;.} ,.:.-.-.| | -.| { ",
"X.G B.oX!.;X;Xc.Z J d.S.oX+X_ X 0 0 t w w t u %.t $.v T W C D N._.'.'.].>X&X=X@X).Y 3 W ) y . c >.y y ~ >.W / 2.<.=.=.-.:.{ { | ",
"..Y C.=X%X~.-X!.j.J d.v.E.+X+.+ w w t 0 0 0 t t 0 u %.c I I C A K h.J j.>X>XOX#XaXN.C _ &.y . R &., d ;.&.g ~ ,.,.=.^ | | { { { ",
"O.X.@.OX-X*X}.-X^.f.j.v.E.$XV.4 % 0 w w t w w % 0 z x y ] V.o.L A L Z J J.=X=XOX#X).` S  .g @ v R 4 ! ,.W g %.>.>.%.Q Q { m j l ",
" .@.#._.-X:X%X-X^.c.I.U.oX$XV.. w 0 % w w w 0 % q z r I K.aXXXJ.L A A A L x.>X=X#X>Xk.D ) x @ v v w &.&.T R ;.>.6.;.Q Q | { m b ",
"@.@.#.b.|.&X&X:XR.v.'.}.;XXXY . w , % , # , + % @ t y y V.+X+X$X).+.D D ; A x.:X&X>X_.G ) c @ v v d &.! R &.,.,.>.;.^ ^ | m m l ",
"5.@.X.o.`.|.>X-XI.P.Q.}.%XJ.= , + % w + # , 0 % % r T h I C.+X@XuXL.] D C D J b.>X&X@XX.Y R * v ~ c &.x R >.,.,.,.;./ Q ( | { j ",
"5.5.@.#.D.oX{.-XM.U.!.{.#XL = , # , , % , % % #   f c 5 4 S O.G.aX^.aXf.V _ H h.'.:XOXA.] u * %.%.T P h &.>.&.&.&.>.) P / } m b ",
" .@.X.#.K D.%X{.!.M.U.R.J.O.2 % % 0 , & & $ % +   w 1 : : : : S f.W.$XL.[ S S ' _.=X&XH.[ y w R / T a y &.6.>.>.] >.&.) E m { N ",
"<.@.@.@.L l.v.Y.U.M.I.D.F.7.y , e i t % % , % % + < < , < 4 X X V z.+XaX7.C _ ' Y.>X&XXX] 4 2 %.,.g r d 3.&.! &.&.>.>.&.n m m N ",
"5. .X.X.G.H.S.I.U.U.E.D.).+.y , r d x u e w 0 % @ + , + , + 4 4 4 C G.aX] S [ z.'.:X;XE.N.; X  .>.2 , ! 3.%.v %.>.>.&.&.E Q | b ",
"<.5.5.X.Z._.XXOX&X&X`.D.G.D 5 + e x v x t w 0 @ @ @ @ @ @ . + 4 4 = O.V._ _ D P.%X:X X'.).+.; S ) 4 u &.&.v %.&.;.;.,.;./ / =.E ",
"8.5.@.@..._.XXOX-X].v.D.h.; y @ e x ! v d t t w w @ @ % @ + + + = 4 4 I W _ D J.>X*X*X&XOX@Xk.` C 3 ~ %.u u ! M M ( ,.,.} ( / Q ",
" .|  ...9 X.G.XXW.Y.v.`.k.C y . u c ! v u x v v u % @ + + + + @ * o * X h 3 C A.=X*X*X*X&X=XoXC.D C _ I I c E E g Q / } %.Q E ^ ",
"..@.@.- 9 G k.b.v.'.].`.A.D 4 + d c v d y v %.,.%.v t w @ @ + @ & * %   . 2 V o.XX&X|.*X*X&X&XoXH.N._ V _ I h U U / ( Q ;./ ^ %.",
"..@...- 9 G B.D.'.&X|.Y.@X+.= : y u R d y c ! %.! ! M d r % & @ @ * * & O O ; V l.b.`. X>X*X;X{.oXXXF.' A S D F I  .U } Q / M %.",
".. .F 9 9 G k.J.'.{.|.].#X+.= 2 y T T u y c ~ / / ! E n s r , # & q q q &   = - G o.b.]. X*X X}.{.&XOXR.A.C.k.@.X.S F  .( =.-.M ",
" . .F - 9 F N.H.'.|.|.{.#XN.= 4 y h P y y g W / ~ E E E n g i r % @ @ q & O O = ; S h.D.|.*X}.}.{.{.'.'.`.D.J.G.F.o.X.Y ( } 1.$.",
":.@.8 O 9 H C.R.'.*X X].=XB.= 4 y P u y y g W W / E E g g g g g y , * * * O O X O - ` A.'. X.XQ.Q.Q.].|.{.Y.Y.R.XX).N.S U ;.-.-.",
" . .8 O - S N.A.E.{.}.].uXN.= , I R u u u I W R ~ ~ W P h g c E E d 0 q & &   . @ + S N.`.].Q.T.T.Q.Q.}.;X}.E.E.Y.oXXX] _ ) } | ",
" . .8 O - I k.J.E.Q.|.|.uXo.X r u u R u y R ~ W W ~ W T P g P E E Q M z % o @ . * * 2 ' b.n.n.m.T.m.T.Q.}.~.}.}.E.E.$XB.S U =.%.",
" ...| O - S [ J.R.T.Q.;XD.Z = , u R u u u R ~ ~ W W W W T P T E U E %.v d w + @ * * O H K c.n.n.U.U.U.Q.~.~.~.}.}.!.&XA.H F  .=.",
"| | ..6 4 3 D l.P.n.T.!.h.4 4 , u T u y u R ~ ~ ~ W W T P P T W U E v M ! c r @ q @ X ; A g.v.n.m.U.U.m.m.Q.~.~.}.!.E.l.A _ E / "
};
