/* XPM */
static char *d5cde352d9064541b6b9b05a19f626f6FmiDjrksWL5rQpF8[] = {
/* columns rows colors chars-per-pixel */
"64 64 216 2 ",
"   c black",
".  c #010101",
"X  c #020202",
"o  c gray1",
"O  c #040404",
"+  c gray2",
"@  c #060606",
"#  c #070707",
"$  c gray3",
"%  c #090909",
"&  c gray4",
"*  c #0B0B0B",
"=  c #0C0C0C",
"-  c gray5",
";  c #0E0E0E",
":  c gray6",
">  c #101010",
",  c #111111",
"<  c gray7",
"1  c #131313",
"2  c gray8",
"3  c #151515",
"4  c #161616",
"5  c gray9",
"6  c #181818",
"7  c #191919",
"8  c gray10",
"9  c #1B1B1B",
"0  c gray11",
"q  c #1D1D1D",
"w  c #1E1E1E",
"e  c gray12",
"r  c #202020",
"t  c gray13",
"y  c #222222",
"u  c #232323",
"i  c gray14",
"p  c #252525",
"a  c gray15",
"s  c #272727",
"d  c #282828",
"f  c gray16",
"g  c #2A2A2A",
"h  c gray17",
"j  c #2C2C2C",
"k  c #2D2D2D",
"l  c gray18",
"z  c #2F2F2F",
"x  c gray19",
"c  c #313131",
"v  c #323232",
"b  c gray20",
"n  c #343434",
"m  c #353535",
"M  c gray21",
"N  c #373737",
"B  c gray22",
"V  c #393939",
"C  c #3A3A3A",
"Z  c gray23",
"A  c #3C3C3C",
"S  c gray24",
"D  c #3E3E3E",
"F  c #3F3F3F",
"G  c gray25",
"H  c #414141",
"J  c gray26",
"K  c #434343",
"L  c #444444",
"P  c gray27",
"I  c #464646",
"U  c gray28",
"Y  c #484848",
"T  c #494949",
"R  c gray29",
"E  c #4B4B4B",
"W  c #4C4C4C",
"Q  c gray30",
"!  c #4E4E4E",
"~  c gray31",
"^  c #505050",
"/  c #515151",
"(  c gray32",
")  c #535353",
"_  c gray33",
"`  c #555555",
"'  c #565656",
"]  c gray34",
"[  c #585858",
"{  c gray35",
"}  c #5A5A5A",
"|  c #5B5B5B",
" . c gray36",
".. c #5D5D5D",
"X. c gray37",
"o. c #5F5F5F",
"O. c #606060",
"+. c gray38",
"@. c #626262",
"#. c gray39",
"$. c #646464",
"%. c #656565",
"&. c gray40",
"*. c #676767",
"=. c #686868",
"-. c DimGray",
";. c #6A6A6A",
":. c gray42",
">. c #6C6C6C",
",. c #6D6D6D",
"<. c gray43",
"1. c gray44",
"2. c #717171",
"3. c #727272",
"4. c gray45",
"5. c #747474",
"6. c gray46",
"7. c #767676",
"8. c #777777",
"9. c gray47",
"0. c #797979",
"q. c gray48",
"w. c #7B7B7B",
"e. c #7C7C7C",
"r. c gray49",
"t. c gray51",
"y. c #838383",
"u. c #848484",
"i. c gray52",
"p. c #868686",
"a. c gray53",
"s. c #888888",
"d. c #898989",
"f. c gray54",
"g. c #8B8B8B",
"h. c gray55",
"j. c #8D8D8D",
"k. c #8E8E8E",
"l. c gray56",
"z. c #909090",
"x. c gray57",
"c. c #929292",
"v. c #939393",
"b. c gray58",
"n. c #959595",
"m. c gray59",
"M. c #979797",
"N. c #989898",
"B. c gray60",
"V. c #9A9A9A",
"C. c #9B9B9B",
"Z. c gray61",
"A. c #9D9D9D",
"S. c gray62",
"D. c #9F9F9F",
"F. c #A2A2A2",
"G. c #A5A5A5",
"H. c gray66",
"J. c #A9A9A9",
"K. c #AAAAAA",
"L. c gray67",
"P. c #ACACAC",
"I. c gray68",
"U. c #AEAEAE",
"Y. c #AFAFAF",
"T. c gray69",
"R. c #B1B1B1",
"E. c #B2B2B2",
"W. c gray70",
"Q. c #B4B4B4",
"!. c gray71",
"~. c #B7B7B7",
"^. c #B9B9B9",
"/. c gray73",
"(. c #BBBBBB",
"). c #BCBCBC",
"_. c gray74",
"`. c gray",
"'. c gray75",
"]. c #C0C0C0",
"[. c #C1C1C1",
"{. c gray76",
"}. c #C3C3C3",
"|. c gray77",
" X c #C5C5C5",
".X c #C6C6C6",
"XX c gray79",
"oX c #CACACA",
"OX c #CBCBCB",
"+X c gray80",
"@X c #CDCDCD",
"#X c #CECECE",
"$X c gray81",
"%X c #D0D0D0",
"&X c gray82",
"*X c #D2D2D2",
"=X c LightGray",
"-X c gray83",
";X c #D5D5D5",
":X c gray84",
">X c #D7D7D7",
",X c #D8D8D8",
"<X c gray85",
"1X c #DADADA",
"2X c #E1E1E1",
"3X c gray90",
"4X c #E6E6E6",
"5X c #E7E7E7",
"6X c gray91",
"7X c #E9E9E9",
"8X c #EAEAEA",
"9X c gray92",
"0X c #ECECEC",
"qX c gray93",
"wX c #EEEEEE",
"eX c #EFEFEF",
/* pixels */
". # . . . $ . # . ; . ; . ; . ; . # . ; . $ . # . # . $ . $ . $ . ; . $ . $ . $ . # . ; . # . $ . $ . $ . ; . ; . ; . $ . $ . ; ",
"f f f u k u k s k u 4 {.<XOX-X~.*X|.*XOX<X'.-X|.*X*XOX. . } g.B.(.U.{.'.E.'.B.E.i.] f . 9 9 9 9 9 9 4 q q 4 k q v q f u k u f u ",
"s f f f f f u f f s q *X'.E.{.Z.{.|.'.~.'.{.n.'.{.L.-.. > ] U.B.-.j.] -.-.-.%.} g.s # . . G %.-. .%.-.-.~ G Z q > q q 9 4 q u 9 ",
"-.%.} >.%.-. .%.. s q *XU.U.B.'.B.U.U.n.U.~.n.B.|.%.n . # g.{.j.O.g.-.g.} g.-.i.] f $ . $ >.'.*XOX*X|.@XB.v.j.%. .%.-.-.} %.%.%.",
"'.|.(.{.n.j.O. .. f 9 *X|.g.i.5.i.-.g.g.g.i.0.i.y.( f . . -.B.O.%.} g.g.j.i.} -.~ u $ . # } *X-XZ.U.Z.{.*X-X*X'.*X{.E.|.(.(.E.{.",
"g.g.y.j.0.i.~ U . f 9 8XB.0.g.g.g.i.5.g.%.g.} i.g.A s . ; 9 g.%.j.g.] %.0.%.g.G f f # . # -.'.Z.g.-.i.%.j.g.4.-.-.i.-.i.O.g.-.5.",
"n.e.5.5.i.%.( G . 9 q 8X{.g.] g.%.g.%.0.4.5.%.-.g.%.s . $ q ~ %.] g.%.j.i.} g.R $ # $ . $ ( *XZ.-.g.} 4.} -.-.g.} -.5.-.i.4.>.5.",
"B.g.} B.} 5.n f . $ 9 8XU.-.4.%.g.g.5.-.~ %.-.g.%.n s . # 9 9 -.j.i.0.%.-.%.g.A ; # $ . ; >.@Xi.g.( 5.] i.5.( %.g.} i.j.%.( i.0.",
"5.j.g.%.5.U 9 q . . u L.B.g.4.g. .i.%.e.] 5.O.%.g.A f . . q f 4 ~ $ # $ $ ; # # $ . . $ # U @X*X%.g.] } 4.R 4.-.i.%.%.( y.g.R %.",
"%.%.] >.U s 9 9 . # 9 j.qXg.5.i.O.-.-.%.-.%.} g.} k ~ . . # 4 ; ; # . # $ . # # . . . q 9 4 E.E.%.-.-.-.4.5.4. .%.i.-.g.j.] i.-.",
"~ A ~ U u q ; $ . . 9 %.'.-.g.-.-.~ %.-.i. .g.%.j.A k ; . 4 4 $ . . . . # . . # . $ . q u 9 ~.i.%.g.] i.>.} -.U G A n v A n A n ",
"s s q q q . . . . ; ; R *Xj.] 5.~ ( } i.0.%.} ~ %.G n # . # 9 9 q q ~ ( %.j.5.g.g.4.R # s u n.-.A U Z Z n f f s f 4 u 4 u 9 9 u ",
". . . . . $ . $ . $ s 4 @XE.%.%.%.5.>.} %.i.( %.i.-.s ; . ; $ R j.g.'.*X3X{.'.'.4.A f . f 4 -.G A n s u 9 9 # # $ $ $ . # . ; . ",
". # . $ . . $ . $ # s q g.{.-.i. .~ >.g.%.} 4.-.} R q ; . . ; i.n.-X{.n.} g.-.g.} R # . ; $ $ $ $ $ $ $ $ # $ . . . . . . . . . ",
"$ # $ $ # $ ; $ $ ; q q -.U.g.} g.4.} ( %.( -.g.%.u k $ . ; 4 i.-Xv.g.%.-.%.} -.%.s ; . ; . . $ . . > . . $ . $ ; $ # # # # ; # ",
"s u # ; # # # $ . $ f 9 U U.} g.4.-.g.5.g.} i.} g.s R 9 . . 9 g.qXj.%. .i.>.i.} g.s $ . # q k s f f . q 9 9 9 u q q 4 q 4 q 9 ; ",
"4.5.-.5.O.0.-.5.4.. . f 9 U.n.5.-.} 5.5.U -.%.-.%.A k f . . q g.qX] -.i.g.} g.%.-.q ; . # A j.@X{.f 9 s ( 4.5.-.5.5.5.-.5.5.5.0.",
"|.U.|.|.E.'.n.j.R ; . f 9 >.Z.%.i.-.~ -.-.] g.O.G %.G q . # q g.U.j.v.O. .i.>.i.} f # # $ j.{.E.g.. u R E.|.*X*X@X{.*XOX-X|.@X{.",
"g.4.%.i.%.g.j.A U # . s q G 5.g. .g.g.} g.R O.U s U s q . . q g.U.i.%.G R R Z k k u ; . # {.U.i.} . q 4.'.{.B.n.j.B.B.Z.g.n.B.B.",
"g.%.4.-.j.] -.G U $ . u u q 5.-.U R A U u s ~ u R s 9 . # . . 5.%.R %.U $ $ ; . # ; . . Z @Xg.-.>.. 9 5.*Xi.g.0.g.%.g.%.5.] e.4.",
"g.%.-.g.] i.j.G k ; . q f 4 A s k f f 9 9 9 # . . . . . . . # >.R ; . # . . . . . . . . k -Xg.i.} . q e.'.v.O.5. .5.-.5.R } %.} ",
"g.%.g.%.g.} %.R u $ . 4 s q . $ . # . . . . . . . . . # . . $ # u $ . . . . . . . . # . -.OXi.j.%.. 9 O.U.] g.0.i.O.g.O.5.} 5.5.",
"%.j.U ~ -.O.g.A f # . ; f s u # . . . . # . . . q u s q s q 4 -.-.-.i.i.>.%.%.( f # $ G B.<Xg.} ( . q } U.g.] 5.-.0.} 4.~ ~ %.%.",
"%.} } ~ %.g. .Z 9 ; . $ ] *X*X*X'.E.i.g.%.v $ q Z ( i.g.B.L.~.@X*X@X|.<X@X*XE.5.A . $ ~ *XL.4.g.R . 9 ] B.i.e.O.i. .g.%.( ( >.%.",
"-.%.g.i. .%.%.v u # . $ {.E.g.%.5.5.g.%.0.# u u ~ {.8X@X*XE.B.n.L.B.U.n.U.B.E.A f . # >.@Xg.4.-.G . q G U.} g.%.%.0.-.] j.O.j.%.",
"5.g. .-.y.} ~ s # # . . <X5.%.4.g.i.-.5.i.. s 9 0.@X~.O.j.] g.4. .i.0.i.0.-.} A 9 . $ %.3Xj.} g.f . q 9 %.R n f s s A A G ~ -. .",
"A v n n Z s 9 # $ $ . $ {.i.j.g. .i.-.i.Z . q 9 5.8Xg.5.g.%.~ j.g.-.] -.i.] g.f 9 . # } 8Xg.i.-.k . f . ; $ > q q > q q 4 f k u ",
"s u q ; # ; . . . . . ; -X} i.%.g.j.O.] v . u 4 5.3X} g.%.0.i.] %.( %.g.-.-.%.u u . . -.qX] j.-.s . s ; . # . . . # . . . $ $ q ",
". . . . . . . ; . u q q *Xj.4.} i.-.g.( v . $ 9 0.8X%.-.g.} -.( O.( %.} %.j.%.u 9 . ; } 8Xj.y.} s . k . ; $ ; # ; # . # . . . . ",
"q A A G -.0.%.] %.%.9 . OXg.U 5.-.g.} } Z $ . 4 -.8Xg.-.] %.( %.] -.g.R >.} g.f q . # O.3X-.i.g.u . k q ; 4 s s q f f f k $ # $ ",
"A O.B.@X|.@X{.'.E.i.~ . <Xg.j.] ( %.g.] A # . 9 %.*Xv.0.%.g.%.g.R R -.( %.g.} s # # > O.{.%.-.g.s . q i.*X|.B.-.n v 9 4 q 9 9 s ",
"Z g.{.E.U.B.g.g.5.g.; . 8XO.4.g.~ %.g.5.G 9 . q ( '.E.i.} %.R %.( ( i.%.g.] } s > . $ -.*Xj.O.%.s . q -X] %.n.*X*X'.*X*X-X%.# s ",
"A -Xv.g.g.} g.-.g. .U . 8X5.g.%.g.g.} g.G 9 . ; u E.*Xi.v.4.-.i. .g.~ ~ %.g.G f # . > -.{.%.g.%.u . u @X-.] g.j.} -.i.-.} } ; u ",
"A |.n.0.} g. .j.] i.U . qX4.} 5.i.%.y.} A f . . f g.8Xj.i.5.>.%.~ %.( ( g. .U q # . 9 %.'.j.i.] f . q *Xi.v.] -.g.g.} g.%.n # 9 ",
"A -Xi.%.g.%.v.i.~ j.q . -Xj.g.i.-.%.%.i.A u # ; s -.3XZ.g.O.g.} -.4.} g.O.g.v 9 . # > %.'.5.-.g.u # 9 E.i.%.g.i.] -.i.-.j.v $ 9 ",
"Z *Xg.g.O.%.>.4.g.] v . <XB.~ 5.( g.g.4.n k . . 9 A {.B.g.-.~ 5.] O.0.O.-.-.v $ . . q %.{.%.j.u s . 9 U.g.5.g.-.i. .-.j.>.f # 9 ",
"Z {.n.O.v.g.-.g.] g.s . L.*X] 5.g.-.%.-.k f . . u s n.@Xj.} g.%.j.%.g.} -.n f $ . . u ( v.~ u $ # $ > g.j.O.g.5.O.g.-.] j.k # # ",
"A @XZ.j.4.O.g.%.g.O.s . B.@X] g.] %.-.i.G s . . # s %.B.g.-.R A v s 9 9 $ $ $ $ . $ ; f # > . ; > 9 . R u 9 f f k f u k s s > $ ",
"Z *Xg.-.i.v.} i.] i.s . 5.{.4.( g.g.} -.G f . . $ f 4 %.>.f v 4 # . . . . . . # . $ 4 s 4 9 s u k s f . . . . . . . . . . . . $ ",
"Z {.B.%.} 5.i.-.g.} s . ( @Xg.4.i.} %.g.Z s . . . u 9 $ . ; . . . . # . # . . $ . # 9 s f 9 9 q 9 9 9 q q 4 ; # ; . $ $ $ # ; $ ",
"Z -XB.i.j.( 5.g.-.g.f . k 3X-.4.%.%.g.} A f . . $ q 9 4 $ ; # $ $ q q q ; u q 9 q 4 9 k s ( ~ ~ ~ ( ( ( ~ ~ ] ~ R ( ( ~ ( R . s ",
"Z *Xi.-.%.v.} g.O.A k . 9 8Xg.-.] ] -.i.G f . . . > A ( ( ~ ] R ~ ~ ( ~ ~ ] ~ ~ -.%.-.5.g.B.i.~.B.E.B.U.B.B.U.Z.~.B.E.B.E.~ $ u ",
"Z U.B.g.v. .g.O.j.s . . s 8X4.%.g.%.%.} Z k # . . $ ~ ~.n.L.B.U.B.E.E.n.E.B.E.B.L.Z.{.@X-XqX3X8X3XqX8XqX8X3XqX2X'.*X{.(.-.Z . q ",
"Z |.B.%.y.%.g.j.} s . ; ; 8X%.g.~ 5. .i.Z s . . . . ( G.(.qX8XqX8XqX*X-X3X8X-X8X8XqX8X8X@X*X|.'.B.B.B.E.n.j.B.E.n.Z.U.B.~ f . s ",
"n Z.v.g.O.j.] %.%.s . . q -Xi.g. .i.%.%.n f > # . . ( E.U.B.L.B.U.B.U.j.n.~.g.n.U.Z.n.j.g.5.>.>.%.g.-.i. .O.%.g. .g.%.g.G f ; # ",
"s L.} -.g.} U G R f . # 9 {.] -.i.} j.>.G f # . . . n Z.@XZ.-.%.} %.%.%.g.] i.g.%.-.4.i.g.j.%.~ 5. .g.g.5.O.j.%.g.i.5.-.A f . $ ",
"9 B.g.g.4.-.k s s . . > 9 B.g.] -.g.%.] R s $ . . . q E.@XZ. .-.>.j.%.0.-.5.i.} %.4.j.g.} 4.-.5.O.-.R } 5.5.O.g.] g.-.g.Z k $ $ ",
"9 ~ ~ ( f s f f f . ; . > 5.5.g.} %.%.A Z s ; . . . . B.*X{.g.g.} O.-.-.~ %. .g.%.0.} g.4.( ] -.j.] -.g.%.( R -.( 5.O.-.R s . $ ",
"9 ; . # . k f s f . $ > u ~ A v Z Z v A s f $ . . . $ g.'.{.-.] g.%.i.} %.j.%.~ ( 5.4.} g.-.g.%.%.i.} %.( %.-.] i.%.R } A f . . ",
"s f f 4 $ . . . . # $ > # $ $ $ ; . $ $ # $ $ . . . . %.{.Z.g.-.%.g.} g.~ O. .0.( 5.-.4.~ i.} -.~ -.-.%.} i.-.] -.%.} R G v . ; ",
"9 q 4 q 9 u 4 ; . # # q # ; . # . . . . . . . . . . ;  .5.A U R G R ~ Z j.-.g.y.} %.~ } -.-.R -.-.i. .g.%.-.g.] -.-.%.0.A k . $ ",
"q ~ i.g.g.y.-.%.Z q 9 s $ . . . ; . . . . . > # # . # f 4 ; $ . $ . . . f R Z ] %.( ( ( ~ ~ ( ~ ~ ( ~ ( ( ( ~ ] ( ~ ~ ] Z u . $ ",
"4 g.E.{.@X|.@X-Xv.i.g.%.G n k q $ $ # # $ # $ $ ; . > k 9 9 $ ; # ; ; $ . u s s k s f f k u v f f s f u k u f f f k u s f . $ ; ",
"9 g.'.i.g.-.Z.{.*X<X*XB.g.y.j.j.g.j.g.4.-.%.} ( ~ G A Z f f 4 q 9 $ q # $ . $ . $ . $ . # . . . . . . . # . . . . . . . . . > $ ",
"4 g.*Xg.g.j.B.i.-.g.n.-X*X<X(.*X{.OX'.*X*X-X*XL.{.U.n.y.g.y.n.i.} u s 9 $ ; . ; $ $ $ . ; . . ; . . . # . > . ; . ; . # $ # 4 u ",
"9 g.@Xg.] y.( ( g.5.-.~ g.} g.%.g.%.g.g.} i.-.g.i.g.E.{.*X{.'.B.} $ 4 s q 4 q # ; . . ; $ $ . $ $ $ # > # # # $ $ $ $ $ ; q q s ",
"9 g.E.i.g.g.%.g.%.-.%.5.i.} -.g.~ R %.g.( %.} %.i.} g.%.j.g.i.( Z . # u q i.|.*X5.( q u 9 u s s 9 9 ; q 9 9 > 9 q > > q u f k s ",
"4 j.L.g.] j.~ ( 5.g.] g.j.4.] ( g.~ -.~ 4.} g.-.g.%.g.} y.j.0.Z s . ; 4 q *Xg.j.-XOX*X{.n.s f u n.*X*X{.@X*X*X|.'.E.g.5.( q 4 s ",
"9 i.} Z v n Z Z v A G k A n Z n v A n Z v A Z v Z n Z v Z n A k s ; . $ q {.n.g.Z.g.F.v.B.n k ~ -X5.i.i.%.j.} i.4.g.O.g.'.0.. s ",
"9 %.A > > $ $ $ # # $ ; $ $ $ ; ; $ . # ; # ; $ $ ; ; $ # # $ ; . $ . . u n.j.n.Z.5.v 5.} Z 9 B.g.-.i.} g.j.g. .g.-.j.} g.f . f ",
"q # . . . . . . . . . . . # . . . . . . . . . . . . . . . . . . . . . . s . 9 $ s Z v Z A v q OX0.4.4.j.i.O.5.i.5.>.g.%.%.u . k ",
"s u $ . ; . $ . . ; . . $ . . $ . > . # # . . $ . . $ . . $ . . $ . $ . ; s f # $ . . . . . ; s f u k s s s k s s k f k u k . s ",
"f f u k 9 q q 9 u 9 q u $ # ; $ $ . > # $ $ # ; . ; $ ; # # # $ # $ ; $ # u k u f $ $ # ; . ; s s # . . . . . . . . . . . . . f ",
"# $ $ $ $ $ . $ $ # $ $ $ # ; $ ; # $ $ ; . $ # $ $ # $ ; $ # $ # ; $ # $ # ; $ $ $ $ $ ; $ $ # # $ $ $ # ; . ; $ ; $ $ # ; $ # "
};
